<svg width="16" height="18" viewBox="0 0 16 18" fill="none" xmlns="http://www.w3.org/2000/svg">
<path d="M2.16667 17.3252H13C14.005 17.3252 15.5 16.6594 15.5 14.8252L15.5 3.15853C15.5 1.32436 14.005 0.658527 13 0.658527L0.5 0.658527V2.32519L12.99 2.32519C13.375 2.33519 13.8333 2.48769 13.8333 3.15853C13.8333 3.24269 13.8258 3.3177 13.8133 3.38603C13.72 3.8652 13.3275 3.98353 12.9908 3.99186L1.33333 3.99186C1.31833 3.99186 1.3075 3.99936 1.2925 4.00019H0.5L0.5 15.6585C0.5 16.5777 1.2475 17.3252 2.16667 17.3252ZM2.16667 5.65853L13.8333 5.65853L13.8333 14.8252C13.8333 15.4969 13.375 15.6485 13 15.6585L7.16667 15.6585L7.16667 9.82519L5.5 10.6585L3.83333 9.82519L3.83333 15.6585H2.16667L2.16667 5.65853Z" fill="#6F7781"/>
</svg>
